<svg xmlns="http://www.w3.org/2000/svg" viewBox="0 0 686.09591 685.72933"><defs><style>.cls-1{fill:#d7edf4;}.cls-2{fill:#e4f5fc;}.cls-3{fill:#f4e4bd;}.cls-4{fill:#fff6da;}.cls-5{fill:#fff;}.cls-6{opacity:0.99;font-size:66.71191px;fill:#331f12;font-family:IM_FELL_English_SC, IM FELL English SC;}.cls-7{letter-spacing:-0.01025em;}</style></defs><title>bottle</title><g id="Layer_1" data-name="Layer 1"><path class="cls-1" d="M292.02887,244.57316c-.53735,15.94642-7.198,31.12573-16.68011,44.68891C284.81038,276.46733,291.45487,261.566,292.02887,244.57316Z" transform="translate(-4.77373 -8.63223)"/><path class="cls-1" d="M285.79912,141.38814c-71.46289,13.86105-79.02973-12.33829-116.49692-42.48747-12.00409-9.66093-23.89324-19.47747-35.735-29.99423C129.59481,82.27015,120.61,97.10836,106.8994,110.77382c-14.23558,14.18866-29.60158,23.1223-43.31883,26.73723,10.68462,12.08138,20.6301,24.20523,30.41579,36.44731,30.02654,37.56532,56.19828,45.22107,42.10393,116.63533C117.07,390.54221,254.63857,472.76315,315.37653,533.70191c50.61549,50.78283,104.84409,104.7162,157.14,160.5707,51.94432,2.10281,97.50815-33.34376,137.29115-78.10778,44.8899-39.62987,82.92643-90.88537,80.99125-142.83255-55.59259-52.56863-111.87162-101.08115-162.48711-151.864C467.57383,260.52954,385.80607,122.69169,285.79912,141.38814Zm75.9944,36.52371c30.19237,18.96154,50.24348,46.815,73.69186,72.91967q21.54319,23.98932,44.04535,47.06865c7.24764,7.39016,14.15647,14.964,21.118,22.56989,6.373,6.9718,13.28325,13.68311,18.42019,21.64791,1.34562,2.09-1.38521,4.81179-3.47087,3.45943-8.87224-5.76591-15.77757-13.87519-24.00223-20.44052-7.98311-6.36945-14.87184-14.395-22.00112-21.69758-14.28331-14.63208-28.68239-29.15878-42.69493-44.05048C403.40827,234.422,379.82,207.30533,348.73675,191.527a143.60756,143.60756,0,0,0-13.56244-6.01567q3.06927-3.0631,6.07164-6.18266,3.92648-4.09082,7.78858-8.34378A120.8902,120.8902,0,0,1,361.79352,177.91185Zm-76.42582-17.676c11.20395-.85542,22.30391-1.07264,33.69723,1.06486a124.75341,124.75341,0,0,1,12.68173,3.08961c-.31862.34311-.63448.68635-.95429,1.02826-4.65374,4.98792-9.46183,9.89071-14.42679,14.64639A89.05528,89.05528,0,0,0,302.46,178.44992c-11.77344-.37874-23.4062,1.2949-35.09545,2.21C273.28289,173.78708,279.37347,167.05071,285.3677,160.23588ZM233.226,162.93023a222.78834,222.78834,0,0,0,27.77246-.52438c-5.43449,6.12587-10.81867,12.29161-15.97542,18.63438a102.93141,102.93141,0,0,1-25.05943-3.77566C224.551,172.646,228.93939,167.83782,233.226,162.93023ZM673.97945,463.72114c1.781-.44365,2.90682,2.15067,1.22559,3.02179-20.54475,10.65128-40.97826,20.99376-60.04142,34.07-6.28482,25.314-25.76385,55.67031-78.85438,74.88048a353.09035,353.09035,0,0,0-31.06179,46.93324c-6.21016,11.29655-12.03693,22.70182-16.55176,34.80442-2.08681,5.59084-3.97538,11.25911-5.73667,16.965-1.24622,4.03846-3.70312,6.0888-5.165,9.71234a2.131,2.131,0,0,1-4.11845-1.08671c.57637-3.01367,2.6597-4.89723,3.3829-7.903.69331-2.8731,1.3919-5.74383,2.25636-8.56907,1.764-5.747,3.65793-11.46434,5.804-17.08316a292.398,292.398,0,0,1,14.52366-32.76774,309.93175,309.93175,0,0,1,22.86035-36.50227c-3.24779.955-6.57805,1.87877-10.04465,2.75341,0,0-122.12358-178.77836-311.83769-236.36952-1.428-.43746,6.67966-4.09527,18.58227-10.90812l-17.33768-13.15558a9.54691,9.54691,0,0,1-1.85758-1.44862c-3.55186-3.60744-3.53677-8.92993-2.37195-13.56335a59.14417,59.14417,0,0,1,3.21536-9.25224c3.44825-9.96759,10.6843-19.82981,18.23731-28.15723.543-.68254,1.08744-1.36389,1.62911-2.03747,11.16231-13.88082,23.73656-25.28273,41.20412-30.75172,8.17273-2.55837,18.33694-4.28955,26.60721-1.229a22.5501,22.5501,0,0,1,9.55991,7.19573,35.9091,35.9091,0,0,1,9.2335,13.05719c-.04-.05279-.07591-.10177-.11574-.152.03852.04894.0772.10307.11574.152,41.25564,52.54761,160.02537,187.3598,301.07179,199.413q3.2318.27542,6.48036.46489s4.67183,14.47086,2.244,34.05434C634.72428,478.82625,653.71819,468.798,673.97945,463.72114Z" transform="translate(-4.77373 -8.63223)"/><path class="cls-2" d="M133.56724,68.90644c3.87684-13.03689,2.98733-24.67216-2.97069-32.44444-2.17391-2.83089-4.25186-5.32843-6.25174-7.53085-.20843-5.98006-2.00972-11.01091-5.599-14.61209-13.97772-14.02393-49.56135-1.21759-79.47754,28.6C9.35325,72.7355-3.56915,108.27535,10.40858,122.29928c3.57325,3.58507,8.5665,5.40767,14.51035,5.64907a67.49089,67.49089,0,0,0,7.59073,6.27733c7.64714,5.48076,18.68775,6.54988,31.07091,3.28537,13.71725-3.61493,29.08325-12.54857,43.31883-26.73723C120.61,97.10836,129.59481,82.27015,133.56724,68.90644ZM46.01682,49.69c25.24242-25.15924,54.01273-37.2172,64.26311-26.93294,10.24919,10.28307-1.903,39.01409-27.14543,64.17334C57.89327,112.08842,29.121,124.147,18.87179,113.864,8.62141,103.57969,20.77558,74.848,46.01682,49.69Z" transform="translate(-4.77373 -8.63223)"/><path class="cls-1" d="M18.87179,113.864C29.121,124.147,57.89327,112.08842,83.1345,86.93036c25.24242-25.15925,37.39462-53.89027,27.14543-64.17334C100.02955,12.47276,71.25924,24.53072,46.01682,49.69,20.77558,74.848,8.62141,103.57969,18.87179,113.864Z" transform="translate(-4.77373 -8.63223)"/><path class="cls-2" d="M615.16362,500.813c19.06316-13.07628,39.49667-23.41876,60.04142-34.07,1.68123-.87112.55539-3.46544-1.22559-3.02179-20.26126,5.07684-39.25517,15.10511-56.86117,26.54114A89.25978,89.25978,0,0,1,615.16362,500.813Z" transform="translate(-4.77373 -8.63223)"/><path class="cls-2" d="M499.64252,616.69877a292.398,292.398,0,0,0-14.52366,32.76774c-2.14605,5.61882-4.04,11.33612-5.804,17.08316-.86446,2.82524-1.56305,5.696-2.25636,8.56907-.7232,3.00579-2.80653,4.88935-3.3829,7.903a2.131,2.131,0,0,0,4.11845,1.08671c1.46183-3.62354,3.91873-5.67388,5.165-9.71234,1.76129-5.70591,3.64986-11.37418,5.73667-16.965,4.51483-12.1026,10.3416-23.50787,16.55176-34.80442a353.09035,353.09035,0,0,1,31.06179-46.93324q-6.55127,2.37384-13.80637,4.50305A309.93175,309.93175,0,0,0,499.64252,616.69877Z" transform="translate(-4.77373 -8.63223)"/><path class="cls-3" d="M275.34876,289.26207c9.48215-13.56318,16.14276-28.74249,16.68011-44.68891a17.63689,17.63689,0,0,0-12.37234-4.95816c-19.89417-.5167-37.93965,12.03848-50.34009,26.58013-9.88815,11.59048-20.82489,25.20779-25.47022,39.95415-.99908,3.17-3.1127,10.22425,1.51351,11.77657,6.99474,2.34535,16.60491-.72036,22.712-4.20127a97.06058,97.06058,0,0,0,26.14957-22.54224c3.40368-4.1199,6.78862-8.54749,9.03508-13.4313,2.27884-4.94928,5.32044-10.34029,6.11719-15.82253-10.981-.8625-22.23531,7.02885-29.80913,14.05341-8.35515,7.75206-15.86,17.39373-19.59688,28.29669a1.35176,1.35176,0,0,1-2.61186-.69183c1.94627-13.23816,12.22075-24.98763,22.37991-33.07257,9.03769-7.19088,20.281-13.87355,32.28141-12.18164a1.93411,1.93411,0,0,1,1.45273,1.88824c-.24374,7.28-4.00633,15.15274-7.36494,21.51771A85.6429,85.6429,0,0,1,252.866,299.65259c-9.78081,10.52735-21.23764,21.00817-35.78248,23.79805-.91808.17471-1.90312.34695-2.92027.492-4.11093.58149-8.80433.68183-12.29817-1.42592l17.33768,13.15558c2.55493-1.46192,5.27218-3.0601,8.11729-4.811C242.87,321.2946,261.9409,307.396,275.34876,289.26207Z" transform="translate(-4.77373 -8.63223)"/><path class="cls-2" d="M200.851,298.25248c4.44219-10.18212,11.45375-19.64058,18.23731-28.15723C211.53525,278.42267,204.2992,288.28489,200.851,298.25248Z" transform="translate(-4.77373 -8.63223)"/><path class="cls-2" d="M307.32211,256.33a35.9091,35.9091,0,0,0-9.2335-13.05719c3.31686,4.00091,5.9105,8.78212,9.11776,12.90516C307.2462,256.22825,307.28212,256.27723,307.32211,256.33Z" transform="translate(-4.77373 -8.63223)"/><path class="cls-4" d="M614.87426,456.20794q-3.25115-.19059-6.48036-.46489C467.34748,443.68982,348.57775,308.87763,307.32211,256.33c-.03854-.049-.07722-.10309-.11574-.152-3.20726-4.123-5.8009-8.90425-9.11776-12.90516a22.5501,22.5501,0,0,0-9.55991-7.19573c-8.27027-3.06059-18.43448-1.32941-26.60721,1.229-17.46756,5.469-30.04181,16.8709-41.20412,30.75172-.54167.67358-1.08611,1.35493-1.62911,2.03747-6.78356,8.51665-13.79512,17.97511-18.23731,28.15723a59.14417,59.14417,0,0,0-3.21536,9.25224c-1.16482,4.63342-1.17991,9.95591,2.37195,13.56335a9.54691,9.54691,0,0,0,1.85758,1.44862c3.49384,2.10775,8.18724,2.00741,12.29817,1.42592,1.01715-.145,2.00219-.31726,2.92027-.492,14.54484-2.78988,26.00167-13.2707,35.78248-23.79805a85.6429,85.6429,0,0,0,13.23878-17.91407c3.35861-6.365,7.1212-14.23771,7.36494-21.51771a1.93411,1.93411,0,0,0-1.45273-1.88824c-12.00036-1.69191-23.24372,4.99076-32.28141,12.18164-10.15916,8.08494-20.43364,19.83441-22.37991,33.07257a1.35176,1.35176,0,0,0,2.61186.69183c3.73688-10.903,11.24173-20.54463,19.59688-28.29669,7.57382-7.02456,18.82813-14.91591,29.80913-14.05341-.79675,5.48224-3.83835,10.87325-6.11719,15.82253-2.24646,4.88381-5.6314,9.3114-9.03508,13.4313a97.06058,97.06058,0,0,1-26.14957,22.54224c-6.1071,3.48091-15.71727,6.54662-22.712,4.20127-4.62621-1.55232-2.51259-8.6066-1.51351-11.77657,4.64533-14.74636,15.58207-28.36367,25.47022-39.95415,12.40044-14.54165,30.44592-27.09683,50.34009-26.58013a17.63689,17.63689,0,0,1,12.37234,4.95816c-.574,16.9928-7.21849,31.89417-16.68011,44.68891C261.9409,307.396,242.87,321.2946,227.32009,330.86129c-2.84511,1.75088-5.56236,3.34906-8.11729,4.811-11.90261,6.81285-20.01023,10.47066-18.58227,10.90812,189.71411,57.59116,311.83769,236.36952,311.83769,236.36952,3.4666-.87464,6.79686-1.7984,10.04465-2.75341q7.2482-2.12732,13.80637-4.50305c53.09053-19.21017,72.56956-49.56644,78.85438-74.88048a89.25978,89.25978,0,0,0,1.95466-10.55069C619.54609,470.6788,614.87426,456.20794,614.87426,456.20794Z" transform="translate(-4.77373 -8.63223)"/><path class="cls-5" d="M302.46,178.44992a89.05528,89.05528,0,0,1,13.90554,1.61508c4.965-4.75568,9.773-9.65847,14.42679-14.64639.31981-.34191.63567-.68515.95429-1.02826a124.75341,124.75341,0,0,0-12.68173-3.08961c-11.39332-2.1375-22.49328-1.92028-33.69723-1.06486-5.99423,6.81483-12.08481,13.5512-18.00311,20.424C279.05384,179.74482,290.6866,178.07118,302.46,178.44992Z" transform="translate(-4.77373 -8.63223)"/><path class="cls-5" d="M260.9985,162.40585a222.78834,222.78834,0,0,1-27.77246.52438c-4.28665,4.90759-8.675,9.71575-13.26239,14.33434a102.93141,102.93141,0,0,0,25.05943,3.77566C250.17983,174.69746,255.564,168.53172,260.9985,162.40585Z" transform="translate(-4.77373 -8.63223)"/><path class="cls-5" d="M335.17431,185.51131a143.60756,143.60756,0,0,1,13.56244,6.01567c31.08325,15.77835,54.67152,42.895,78.163,67.86184,14.01254,14.8917,28.41162,29.4184,42.69493,44.05048,7.12928,7.30258,14.018,15.32813,22.00112,21.69758,8.22466,6.56533,15.13,14.67461,24.00223,20.44052,2.08566,1.35236,4.81649-1.36947,3.47087-3.45943-5.13694-7.9648-12.04721-14.67611-18.42019-21.64791-6.96154-7.60587-13.87037-15.17973-21.118-22.56989q-22.56419-23.03329-44.04535-47.06865c-23.44838-26.10467-43.49949-53.95813-73.69186-72.91967a120.8902,120.8902,0,0,0-12.759-6.927q-3.85317,4.25693-7.78858,8.34378Q338.24817,182.45551,335.17431,185.51131Z" transform="translate(-4.77373 -8.63223)"/><text class="cls-6" transform="matrix(0.78807, 0.61558, -0.61558, 0.78807, 263.80556, 321.17742)"><tspan class="cls-7">M</tspan><tspan x="62.05371" y="0">y Resume</tspan></text></g></svg>