<svg id="Layer_1" data-name="Layer 1" xmlns="http://www.w3.org/2000/svg" viewBox="0 0 1947.05 1181.99"><title>Untitled-2</title><path d="M1026.25,141c.83-1.51,1.26-2.87,2.14-3.81,17.9-19.12,39.91-24.75,65.1-19.56,17.09,3.52,29.9,13.54,39.48,27.6A57.72,57.72,0,0,1,1143,172.64c.29,3.14.68,6.28,1,9.42.32,3.6,1.11,4.51,4.78,3.63,26-6.22,54.47,14.64,65.48,36.64,9.07,18.11,9.58,37.07,1.18,56-6.54,14.72-16.85,25.86-31.19,33a64,64,0,0,1-28.91,6.72q-209.47,0-418.94,0c-44.5,0-89,.14-133.48-.09-22.82-.13-41.06-9.61-54.26-28.45-10.37-14.81-13.82-31.21-10.77-48.85,4.61-26.65,20.5-43.69,45.9-52a76.38,76.38,0,0,1,16.54-3.37c4.4-.42,8.92.5,13.39.8.82.06,1.65,0,2.9,0,1.08-37.25,16.77-66.65,49.28-85.16s65.8-17.17,98.94.71c2.43-3.42,4.91-6.9,7.36-10.39,12.89-18.39,30.6-30.11,52.06-35.57a90.08,90.08,0,0,1,57.27,4.11,82.3,82.3,0,0,1,27.13,17.42A122.86,122.86,0,0,1,920.7,90.32a8.14,8.14,0,0,0,8,3.62,107.94,107.94,0,0,1,93.51,42.67C1023.07,137.77,1024.17,138.77,1026.25,141Z" transform="translate(-3.07 -4.01)"/><path d="M1780.81,322.37q-72.6-.11-145.19-.79L1561.9,321c-21.76-.16-43.89,2.58-64-7.26A85.09,85.09,0,0,1,1472,294.49a82.73,82.73,0,0,1-17.55-30.92c-3.54-11.08-4.07-22.3-3.29-33.58a70.42,70.42,0,0,1,7.9-28c4.37-8.37,9.47-16.09,16.14-22.57,12.49-12.11,27.42-19.92,44.76-22.39,6.55-.93,13.26-.79,19.9-1,4.71-.17,4.77-.1,5.13-4.64a102.25,102.25,0,0,1,17.72-50.28,106.9,106.9,0,0,1,96.83-47,90,90,0,0,1,14.79,2.17c3.26.76,4.91-.3,6.46-2.9a104.63,104.63,0,0,1,17.91-22.63c8.68-8.22,18.3-14.91,29.47-19.24,12.19-4.73,24.77-7.69,38-7.47a102.87,102.87,0,0,1,36.38,7.67,88.26,88.26,0,0,1,31.31,21c11.65,12.07,20.68,26.08,24.3,42.89,1.18,5.48,2.18,11,2.83,16.61.39,3.33,2.59,4,5,4.57,9.8,2.34,18.83,6.54,27.51,11.53,17.89,10.3,31.62,24.74,41.86,42.55a110.25,110.25,0,0,1,14.45,63.83,114.92,114.92,0,0,1-11.93,44c-17.17,34.1-47.41,54.4-84.63,60.65-20.45,3.42-41.32,3.27-62,3.1Z" transform="translate(-3.07 -4.01)"/><path d="M205,754q-69.51,0-139,0c-14.9,0-28.8-3.52-40.58-13.27S6,718.53,3.74,703a67.13,67.13,0,0,1,.37-21.23c1.14-6.6,4.33-12.54,7.78-18.31,8.4-14,21-22.24,36.37-26.58,1.7-.48,3.51-.57,5.24-1,3.62-.8,3.84-1,3.83-4.72,0-6.09,0-12.15,1.6-18.12a61,61,0,0,1,12.06-23c10.6-12.88,24.57-19.34,40.72-21.22,5.06-.59,10.33.45,15.48,1,3.72.37,4,.45,4.88-3.2,1.47-6.41,3.48-12.53,7.09-18.13,10.11-15.7,24-25.46,42.7-28.18a53.48,53.48,0,0,1,27.5,2.85c2.85,1.11,4.42.21,5.78-2.21,4.19-7.48,10.08-13.63,16.46-19.15a84.83,84.83,0,0,1,47.27-20.76,86.5,86.5,0,0,1,52.28,10.66A79.84,79.84,0,0,1,355,512.11a94.57,94.57,0,0,1,16.4,31.3c.09.29.22.56.29.84.67,2.87.5,6.47,2.23,8.38s5.35,2.16,8.12,3.2a102,102,0,0,1,32.59,19.65,103.17,103.17,0,0,1,31.54,55.43,112.82,112.82,0,0,1,.56,37.17,93.4,93.4,0,0,1-17.31,42.43c-12.15,16.45-27.37,29.1-46.8,36.29a95.3,95.3,0,0,1-30.28,6.37c-6.81.22-13.61.75-20.42.76Q268.42,754,205,754Z" transform="translate(-3.07 -4.01)"/><path d="M1729.68,512.37c3.41-1.44,6.44-2.78,9.52-4,24.45-9.75,54.92-3.74,72.94,16.29a65.39,65.39,0,0,1,17,37.49c.15,1.32.74,2.62.7,3.92-.19,6.29,1.06,5.52,6.27,6.91a91.1,91.1,0,0,1,34.64,18.08c40.42,33.16,39.77,99.48,1,133.44-25.3,22.15-56.21,22.67-88.21,22.66q-80.23,0-160.47-.11l-80.23-.08c-24.1,0-49.61,2.32-73.46-1.73-12.87-2.19-24.36-7.82-34.76-15.53-15.29-11.33-24.9-26.6-29.85-44.82a81.17,81.17,0,0,1-1.44-37.59,82.37,82.37,0,0,1,14.28-32.15c8.16-11.25,18.82-19.69,31.13-26,9-4.61,18.73-6.84,28.69-8.09,4.61-.58,5.12-1,5.54-5.26a89.89,89.89,0,0,1,13.59-39.22,101.72,101.72,0,0,1,24.27-26.91,95,95,0,0,1,40.07-18.14c8.22-1.66,16.88-1.3,25.34-1.44,4-.07,6.75-1.1,9.51-4.15,12.72-14,28.36-23.42,47.28-25.51,21.65-2.4,42.11,1.23,59.65,15.59,10.08,8.24,18.56,17.6,23.51,29.84A69.8,69.8,0,0,0,1729.68,512.37Z" transform="translate(-3.07 -4.01)"/><path d="M1624.59,1016.11c4.65-2.3,8.59-4.44,12.68-6.23,21.1-9.24,42.8-10.76,64.78-3.89a100.79,100.79,0,0,1,21.39,9.48,81.18,81.18,0,0,1,21.2,18c8.87,10.8,15.76,22.75,19.54,36.24a81,81,0,0,1,2.69,17.19c1,16.73-1.7,32.91-9.36,47.94A91.87,91.87,0,0,1,1727,1169.8c-16.25,11.07-34,16.21-53.54,16.21q-186.24,0-372.49,0c-15.52,0-28.08-6.23-37.12-18.91a39.36,39.36,0,0,1-6.66-17.59c-1.9-13.76,1.24-26.39,10.8-36.58a41.71,41.71,0,0,1,30.11-13.68c5-.1,6.43-2.63,8.14-6.3,2.72-5.86,5.38-11.87,9-17.13,9.41-13.49,22.79-21.74,38.36-26.24,5-1.45,10.52-1.28,15.82-1.52,6.06-.27,5.84-.14,6.62-6a128.86,128.86,0,0,1,9.7-35.49,126.82,126.82,0,0,1,25.45-37.91,127.43,127.43,0,0,1,80.43-37.8c43-4.11,89.7,16.88,114.6,52,6.11,8.62,10.58,18.41,15.73,27.71C1622.86,1012.11,1623.52,1013.8,1624.59,1016.11Z" transform="translate(-3.07 -4.01)"/><path d="M493.9,1027.18c-5.59-25.42-1.16-48.14,17.79-66s41.62-21.68,66.54-14.46c2.67-5.4,4.9-10.79,7.86-15.74,8.92-14.9,20.24-27.39,35.67-36.08a130.49,130.49,0,0,1,23.3-10.1c5-1.65,10.42-2.22,15.7-2.64,23.88-1.9,46.06,3.29,65.84,17.06a94.45,94.45,0,0,1,32,38.8c3,6.54,5.73,13.09,6.74,20.27.47,3.35,2.22,5.43,5.72,6.72,15.43,5.68,25,17.06,28.37,32.86,1.67,7.85,1.5,16.18-2.26,24-2.66,5.52-2.47,5.78,2.18,9.53a56.41,56.41,0,0,1,21.21,37.79c1.83,14.37-.69,28.14-9.24,40.44-9,12.89-20.91,21.3-36.16,24.79a65.85,65.85,0,0,1-14.34,1.58q-104,.15-208,.07c-13.47,0-26.94,0-40.41,0-11.19,0-21.79-2.12-31.68-7.57C436.45,1104,450,1042.16,493.9,1027.18Z" transform="translate(-3.07 -4.01)"/></svg>