<svg id="Layer_1" data-name="Layer 1" xmlns="http://www.w3.org/2000/svg" viewBox="0 0 763.47 402.44"><title>Untitled-2</title><path d="M495.83,152.83c4.65-2.3,8.59-4.44,12.68-6.23,21.1-9.24,42.8-10.76,64.78-3.89a100.72,100.72,0,0,1,21.38,9.48,80.86,80.86,0,0,1,21.2,18c8.87,10.8,15.76,22.75,19.55,36.24a82.3,82.3,0,0,1,2.69,17.2c1,16.72-1.7,32.9-9.37,47.93a91.79,91.79,0,0,1-30.51,34.94c-16.25,11.07-34,16.21-53.54,16.21q-186.24,0-372.48,0c-15.53,0-28.09-6.23-37.12-18.91a39.36,39.36,0,0,1-6.66-17.59c-1.9-13.76,1.23-26.39,10.8-36.58a41.69,41.69,0,0,1,30.1-13.68c4.95-.1,6.43-2.63,8.14-6.3,2.73-5.86,5.38-11.87,9.05-17.13,9.4-13.48,22.78-21.74,38.35-26.24,5-1.44,10.53-1.28,15.83-1.52,6.05-.27,5.84-.14,6.62-6A128.49,128.49,0,0,1,257,143.24a127,127,0,0,1,25.45-37.91,127.43,127.43,0,0,1,80.43-37.8c43-4.11,89.7,16.88,114.6,52,6.11,8.62,10.59,18.41,15.74,27.71C494.1,148.83,494.76,150.52,495.83,152.83Z"/></svg>