<svg id="Layer_1" data-name="Layer 1" xmlns="http://www.w3.org/2000/svg" viewBox="0 0 786.98 308.39"><title>Untitled-2</title><path d="M530.24,106.23c.83-1.51,1.26-2.87,2.14-3.81,17.89-19.13,39.91-24.75,65.1-19.56,17.08,3.52,29.9,13.53,39.48,27.6A57.79,57.79,0,0,1,647,137.84c.29,3.14.68,6.27,1,9.42.31,3.59,1.11,4.51,4.78,3.63,26-6.22,54.46,14.63,65.48,36.64,9.07,18.11,9.57,37.07,1.18,56-6.54,14.71-16.85,25.85-31.19,33a64.19,64.19,0,0,1-28.92,6.72q-209.46,0-418.94,0c-44.49,0-89,.15-133.48-.09-22.81-.12-41.06-9.6-54.25-28.44-10.37-14.81-13.82-31.21-10.77-48.86,4.61-26.64,20.5-43.69,45.9-52a77,77,0,0,1,16.54-3.36c4.4-.42,8.92.5,13.39.8.82,0,1.65,0,2.89,0,1.09-37.26,16.78-66.65,49.29-85.16s65.79-17.17,98.94.71c2.42-3.43,4.9-6.9,7.35-10.39C289.06,38,306.77,26.3,328.23,20.83a90.15,90.15,0,0,1,57.27,4.11,82,82,0,0,1,27.12,17.43,120.8,120.8,0,0,1,12.06,13.15,8.12,8.12,0,0,0,8,3.61,108,108,0,0,1,93.51,42.67C527.05,103,528.15,104,530.24,106.23Z"/></svg>